# xmcd
#
# Track frame offsets:
#	150
#	19137
#	37605
#	50612
#	75570
#	93495
#	113330
#	130425
#	148950
#	169355
#	193962
#	211455
#	230830
#	248382
#
# Disc length: 3594 seconds
#
# Revision: 0
# Processed by: cddbd v1.4PL0 Copyright (c) Steve Scherf et al.
# Submitted via: audiograbber 1.81.01
#
DISCID=c10e080e
DTITLE=Chris de Burgh - High on Emotion
DYEAR=1900
DGENRE=
TTITLE0=High On Emotion 
TTITLE1=Ship To Short 
TTITLE2=Much More Than This 
TTITLE3=A Spaceman Came Travelling 
TTITLE4=A Celebration 
TTITLE5=In Your Eyes 
TTITLE6=She Means Everything To Me 
TTITLE7=The Waiting Heart 
TTITLE8=The Simple Truth 
TTITLE9=The Last Time 1 Cried 
TTITLE10=Patricia The Stripper 
TTITLE11=The Head And The Heart 
TTITLE12=Diamonds In The Dark 
TTITLE13=Sailing Away
EXTD=
EXTT0=
EXTT1=
EXTT2=
EXTT3=
EXTT4=
EXTT5=
EXTT6=
EXTT7=
EXTT8=
EXTT9=
EXTT10=
EXTT11=
EXTT12=
EXTT13=
PLAYORDER=
